# xmcd
#
# Track frame offsets: 
#        150
#        17592
#        37809
#        51618
#        74959
#        94051
#        110975
#        128260
#        151571
#        170353
#        186648
#        207417
#        228222
#        250564
#        267941
#        279371
#
# Disc length: 4266 seconds
#
# Revision: 2
# Processed by: cddbd v1.5.2PL0 Copyright (c) Steve Scherf et al.
# Submitted via: ExactAudioCopyFreeDBPlugin 1.0
#
DISCID=dd10a810
DTITLE=Joy - The Best Of Joy
DYEAR=2000
DGENRE=New Age
TTITLE0=Touch by Touch
TTITLE1=Hello
TTITLE2=Lost in Hong Kong
TTITLE3=Japanese Girls
TTITLE4=Fire in the Night
TTITLE5=Cheek to Cheek
TTITLE6=Black is Black
TTITLE7=I'm in Love
TTITLE8=Valerie
TTITLE9=Chinese Girls
TTITLE10=Countdown of Love
TTITLE11=Darling
TTITLE12=Joy and Tears
TTITLE13=Gimme Gimme All of You
TTITLE14=Why Are You Hurting Me So Much
TTITLE15=Valerie (extended)
EXTD=YEAR: 2000
EXTT0=
EXTT1=
EXTT2=
EXTT3=
EXTT4=
EXTT5=
EXTT6=
EXTT7=
EXTT8=
EXTT9=
EXTT10=
EXTT11=
EXTT12=
EXTT13=
EXTT14=
EXTT15=
PLAYORDER=
